<svg width="1920" height="1080" viewBox="0 0 1920 1080" fill="none" xmlns="http://www.w3.org/2000/svg">
<mask id="mask0" mask-type="alpha" maskUnits="userSpaceOnUse" x="0" y="0" width="1920" height="1081">
<rect x="1920" y="9.15527e-05" width="1080" height="1920" transform="rotate(90 1920 9.15527e-05)" fill="#C4C4C4"/>
</mask>
<g mask="url(#mask0)">
<path d="M1920 1913.02L1920 -1107.16L0.000488281 -1107.16L0.000356265 1913.02L1920 1913.02Z" fill="url(#paint0_linear)"/>
<path d="M1221.12 1913.02C1221.12 1913.02 1539.84 1572.87 1002.24 1303.06C464.641 1033.26 6.87433 688.84 395.521 207.746C1121.28 -690.254 541.441 -1107.16 541.441 -1107.16L0.000865719 -1107.16L0.000733703 1913.02L1221.12 1913.02Z" fill="url(#paint1_linear)"/>
<path d="M1923.84 248.015C1923.84 248.015 1274.88 -219.106 871.681 807.754C468.481 1834.61 0.000557297 1677.57 0.000557297 1677.57L0.000547005 1913.02L1920 1913.02L1923.84 248.015Z" fill="url(#paint2_linear)"/>
<path d="M1693.44 -1107.16C1693.44 -1107.16 1999.37 -498.291 1419.53 -135.87C839.694 226.551 945.908 940.642 1314.93 1297.71C1717.44 1687.19 1505.28 1913.02 1505.28 1913.02L518.401 1913.02C518.401 1913.02 1121.28 1390.85 633.601 731.243C-42.2389 -182.864 468.481 -1107.16 468.481 -1107.16L1693.44 -1107.16Z" fill="url(#paint3_linear)"/>
<path d="M1920 1262.87C1920 1262.87 1081.73 1521.6 1229.95 343.533C1378.18 -834.538 657.447 -1107.16 657.447 -1107.16L1920 -1107.16L1920 1262.87Z" fill="url(#paint4_linear)"/>
</g>
<defs>
<linearGradient id="paint0_linear" x1="2077.44" y1="402.93" x2="-292.569" y2="402.93" gradientUnits="userSpaceOnUse">
<stop stop-color="#E94546"/>
<stop offset="0.16" stop-color="#CE2241"/>
<stop offset="0.33" stop-color="#B5023C"/>
<stop offset="0.36" stop-color="#AD023C"/>
<stop offset="0.57" stop-color="#750240"/>
<stop offset="0.76" stop-color="#4C0342"/>
<stop offset="0.91" stop-color="#330343"/>
<stop offset="1" stop-color="#2A0344"/>
</linearGradient>
<linearGradient id="paint1_linear" x1="885.198" y1="345.506" x2="-448.066" y2="599.047" gradientUnits="userSpaceOnUse">
<stop stop-color="#E94546"/>
<stop offset="0.06" stop-color="#E33E45" stop-opacity="0.88"/>
<stop offset="0.2" stop-color="#D93043" stop-opacity="0.65"/>
<stop offset="0.34" stop-color="#CF2441" stop-opacity="0.45"/>
<stop offset="0.48" stop-color="#C81A40" stop-opacity="0.29"/>
<stop offset="0.61" stop-color="#C2123E" stop-opacity="0.16"/>
<stop offset="0.74" stop-color="#BD0C3E" stop-opacity="0.07"/>
<stop offset="0.88" stop-color="#BB093D" stop-opacity="0.02"/>
<stop offset="1" stop-color="#BA083D" stop-opacity="0"/>
</linearGradient>
<linearGradient id="paint2_linear" x1="-72124.8" y1="934281" x2="-1.15747e+06" y2="1.1694e+06" gradientUnits="userSpaceOnUse">
<stop stop-color="#E94546"/>
<stop offset="0.06" stop-color="#E33E45" stop-opacity="0.88"/>
<stop offset="0.2" stop-color="#D93043" stop-opacity="0.65"/>
<stop offset="0.34" stop-color="#CF2441" stop-opacity="0.45"/>
<stop offset="0.48" stop-color="#C81A40" stop-opacity="0.29"/>
<stop offset="0.61" stop-color="#C2123E" stop-opacity="0.16"/>
<stop offset="0.74" stop-color="#BD0C3E" stop-opacity="0.07"/>
<stop offset="0.88" stop-color="#BB093D" stop-opacity="0.02"/>
<stop offset="1" stop-color="#BA083D" stop-opacity="0"/>
</linearGradient>
<linearGradient id="paint3_linear" x1="1716.71" y1="259.773" x2="-370.466" y2="632.035" gradientUnits="userSpaceOnUse">
<stop stop-color="#E94546"/>
<stop offset="0.16" stop-color="#CE2241"/>
<stop offset="0.33" stop-color="#B5023C"/>
<stop offset="0.47" stop-color="#8E023E" stop-opacity="0.72"/>
<stop offset="0.65" stop-color="#640341" stop-opacity="0.41"/>
<stop offset="0.8" stop-color="#440342" stop-opacity="0.19"/>
<stop offset="0.93" stop-color="#310344" stop-opacity="0.05"/>
<stop offset="1" stop-color="#2A0344" stop-opacity="0"/>
</linearGradient>
<linearGradient id="paint4_linear" x1="-344941" y1="741576" x2="72509.6" y2="711025" gradientUnits="userSpaceOnUse">
<stop stop-color="#E94546"/>
<stop offset="0.06" stop-color="#E33E45" stop-opacity="0.88"/>
<stop offset="0.2" stop-color="#D93043" stop-opacity="0.65"/>
<stop offset="0.34" stop-color="#CF2441" stop-opacity="0.45"/>
<stop offset="0.48" stop-color="#C81A40" stop-opacity="0.29"/>
<stop offset="0.61" stop-color="#C2123E" stop-opacity="0.16"/>
<stop offset="0.74" stop-color="#BD0C3E" stop-opacity="0.07"/>
<stop offset="0.88" stop-color="#BB093D" stop-opacity="0.02"/>
<stop offset="1" stop-color="#BA083D" stop-opacity="0"/>
</linearGradient>
</defs>
</svg>
